<svg xmlns="http://www.w3.org/2000/svg" width="16" height="16" viewBox="0 0 24 24" fill="currentColor">
  <path d="M12 22C8.686 22 6 19.314 6 16c0-2.757 1.867-5.09 4.39-5.836.155-.046.308-.099.456-.157L10.646 8.1A8.95 8.95 0 0 1 12 8c2.757 0 5 2.243 5 5s-2.243 5-5 5c-.28 0-.556-.026-.825-.073.266-.706.415-1.47.415-2.277 0-3.526-2.813-6.4-6.27-6.4-.243 0-.484.014-.723.041C4.258 11.672 4 13.307 4 15c0 3.866 3.134 7 8 7zm.972-2.233C14.49 19.394 16 17.875 16 16c0-.73-.212-1.41-.578-1.989.364.588.578 1.268.578 1.989 0 1.875-1.51 3.394-3.028 3.767z"/>
</svg>
